<?xml version="1.0" encoding="iso-8859-1"?>
<!-- Generator: Adobe Illustrator 19.0.0, SVG Export Plug-In . SVG Version: 6.00 Build 0)  -->
<svg version="1.1" id="Capa_1" xmlns="http://www.w3.org/2000/svg" xmlns:xlink="http://www.w3.org/1999/xlink" x="0px" y="0px" height="26px"
	 viewBox="0 0 512 512" style="enable-background:new 0 0 512 512;" xml:space="preserve">
<g>
	<g>
		<path d="M357,340.074v-30c-18.754-0.001-35.336,9.44-45.269,23.813l-0.633-0.633c-19.831-19.832-46.199-30.754-74.246-30.754
			s-54.415,10.922-74.246,30.754l-31.82,31.82l31.82,31.82c19.832,19.832,46.199,30.754,74.246,30.754
			c28.046,0,54.415-10.922,74.246-30.754l0.633-0.633c9.932,14.372,26.515,23.813,45.269,23.813v-30c-13.785,0-25-11.215-25-25
			C332,351.289,343.215,340.074,357,340.074z M289.886,375.68c-14.166,14.166-33,21.967-53.033,21.967
			c-20.033,0-38.868-7.801-53.033-21.967l-10.606-10.607l10.606-10.607c14.166-14.166,33-21.967,53.033-21.967
			c20.033,0,38.867,7.801,53.033,21.967l10.606,10.606L289.886,375.68z"/>
	</g>
</g>
<g>
	<g>
		<circle cx="117" cy="282.5" r="20"/>
	</g>
</g>
<g>
	<g>
		<path d="M443.017,60.827C439.594,56.977,409,20.5,256,20.5c-150.5,0-183.538,36.431-186.953,40.254
			C24.519,108.4,0,170.427,0,235.5c0,68.38,26.629,132.667,74.98,181.019C123.333,464.871,187.62,491.5,256,491.5
			s132.667-26.629,181.02-74.981C485.371,368.167,512,303.88,512,235.5C512,170.463,487.504,108.467,443.017,60.827z M256,50.5
			c126,0,161.59,27.096,164.324,30c-2.734,2.904-36.324,30-164.324,30c-127.5,0-161.59-27.096-164.325-30
			C94.41,77.596,130.787,50.5,256,50.5z M72.508,103.7C75.333,106.236,112,140.5,256,140.5c145,0,180.665-34.263,183.489-36.798
			c14.817,20.565,25.979,43.318,33.141,67.367c-21.49,1.571-34.771,6.13-46.753,10.244c-13.761,4.725-26.758,9.187-53.38,9.187
			c-26.623,0-39.62-4.463-53.381-9.187c-14.762-5.068-31.493-10.813-63.122-10.813c-31.628,0-48.358,5.745-63.12,10.813
			c-13.76,4.725-26.756,9.187-53.377,9.187c-26.621,0-39.618-4.462-53.378-9.187c-11.982-4.114-25.262-8.673-46.752-10.244
			C46.53,147.018,57.691,124.265,72.508,103.7z M256,461.5c-124.617,0-226-101.383-226-226c0-11.735,0.909-23.357,2.683-34.783
			c20.312,0.945,31.716,4.857,43.695,8.97c14.761,5.068,31.492,10.813,63.12,10.813c4.389,0,8.481-0.114,12.331-0.318
			c-1.163,2.536-1.829,5.346-1.829,8.318c0,11.046,8.954,20,20,20s20-8.954,20-20c0-5.103-1.927-9.744-5.072-13.278
			c6.587-1.725,12.273-3.675,17.69-5.535c13.76-4.725,26.757-9.187,53.377-9.187c26.622,0,39.619,4.462,53.38,9.187
			c14.762,5.068,31.493,10.813,63.123,10.813c31.629,0,48.36-5.745,63.122-10.813c11.979-4.113,23.383-8.025,43.696-8.97
			C481.091,212.143,482,223.765,482,235.5C482,360.117,380.617,461.5,256,461.5z"/>
	</g>
</g>
<g>
</g>
<g>
</g>
<g>
</g>
<g>
</g>
<g>
</g>
<g>
</g>
<g>
</g>
<g>
</g>
<g>
</g>
<g>
</g>
<g>
</g>
<g>
</g>
<g>
</g>
<g>
</g>
<g>
</g>
</svg>
