<?xml version="1.0" encoding="utf-8"?>
<!-- Generator: Adobe Illustrator 24.3.0, SVG Export Plug-In . SVG Version: 6.00 Build 0)  -->
<svg version="1.1" id="Слой_1" xmlns="http://www.w3.org/2000/svg" xmlns:xlink="http://www.w3.org/1999/xlink" x="0px" y="0px"
	 viewBox="0 0 1920 1080" style="enable-background:new 0 0 1920 1080;" xml:space="preserve">
<style type="text/css">
	.st0{fill:#6695D9;}
	.st1{fill:#95BDEF;}
	.st2{fill:#BBD1F6;}
	.st3{fill:#3AD3EF;}
	.st4{fill:#45BDE9;}
	.st5{fill:none;stroke:#EBE3DE;stroke-width:8;stroke-miterlimit:10;}
</style>
<image style="display:none;overflow:visible;" width="1024" height="966" xlink:href="51403ee73c251bab444905091c6e65d2.png"  transform="matrix(1.0473 0 0 1.0896 427.5745 27.4643)">
</image>
<path class="st0" d="M662,1034.6c-8.6-29.5-3.9-40.5,1.5-45.3c17.5-15.6,59,20,144,34.7c15.9,2.8,32,3.9,64.3,6
	c32.9,2.2,84.4,5.5,151.7,1.5c83.7-5,125.6-6.2,156.3-21.1c34.6-16.8,58.7-40.2,70.4-31.5c10.4,7.8,8.9,39.3,3.1,60.1
	c0,0,0,0.1,0,0.1c0,0-18,5.5-36.9,11.2c-24.7,7.5-42.2,12.8-42.8,13c-66.1,20-217.5,16.7-217.5,16.7c-172.2-3.7-244-27-274.2-37.8
	C673.4,1039.1,666.5,1036.4,662,1034.6z"/>
<path class="st1" d="M733,966.7c181-19.6,305.9-17.2,456.5,0c27.7,3.2,66.1,8,67.4,19.6c1.7,15.2-60.6,33.3-81.2,39.3
	c0,0-150.8,43.8-438.1,0c-2.3-0.3-17.8-2.8-36.8-10.6c-9.7-4-40.8-16.7-39.8-27.2C662.2,974.6,713.4,968.8,733,966.7z"/>
<path class="st2" d="M526.4,72.8c16.5-11.3,31.9-15.9,39.8-18.1c132.1-37.2,288-39.2,288-39.2c21.6-0.3,111.6-1.4,237.4,0
	c0,0,162.3,1.8,274.2,40.7c7.4,2.6,16.3,6.2,26,12.1c0,0,32.8,19.8,54.8,60.6c71,131.9,49.2,344.1,49.2,344.1
	c-9.8,95.5-22.4,204.9-97.8,315.6c-42.7,62.6-88.1,100.2-102.6,111.8c-14.7,11.7-84.6,66.1-194.6,95.1
	c-35.2,9.3-127.2,32.5-240.5,10.6C665.4,968.1,556.9,825.2,531,790C443,670.2,429.5,550.4,422.3,486.5c0,0-13.8-123.1,44.3-320.1
	C474.8,138.9,488.9,98.4,526.4,72.8z"/>
<path class="st3" d="M450.6,318.9c10.9-58.8,19.7-106.3,52.1-119.8c9.9-4.1,8.5,0.6,53.6-7c19.1-3.2,35.6-6.5,50.1-10
	c13.5-3.2,15.5-4.3,34.1-6.7c170.1-21.5,355.4-18.1,355.4-18.1c59.4,1,102.6,1.7,163.9,6c163.3,11.7,245.8,18.5,284.9,64.9
	c29,34.4,28.5,87.4,27.6,193.3c-0.7,83.8-1.4,153.5-35.2,240.1c-8,20.6-45,111.2-133.3,196.3c-23.3,22.5-59.3,56.7-116.4,86.1
	c-14.4,7.4-84.7,42.6-183.8,49.8c-35.6,2.6-213.9,11.7-364.6-113.2c-89.2-73.9-127.3-160.5-147.1-206.9
	c-37.2-87.2-44-162.3-49.4-251C441.2,402,442.3,363.5,450.6,318.9z"/>
<path class="st4" d="M478.6,231.4c3.6,5.7,9.2,13.6,17.5,21.7c19.4,18.9,41.3,25.3,54.4,30.5c30.6,12.1,72.6,17.1,130.5,22
	c72.2,6,136.8,9.1,201.4,9.3c2,0,3.6,0,4.9,0c39.8,0,36.9-0.7,142.4-3c79.7-1.7,159.4-7.1,239.1-9.3c0,0,45.2-1.2,146.9-34.3
	c9.5-3.1,30-10.1,33.9-25.4c3.2-12.5-6-24.9-9.2-29.1c-32.3-43.1-154.8-45.9-248.2-50.6c-100.2-5-70.7-7.2-156.3-10.7
	c-163.4-6.6-293.8,3-294.1,3.1c0,0,0,0,0,0c-195.7,21.7-245.4,24.2-259.6,55.5C480.5,214.9,478.2,221.6,478.6,231.4z"/>
<path class="st5" d="M498.2,113.5c2.8,28.2,56.7,44.1,106.4,58.9c14.9,4.4,39.1,11,71.4,16.6c35.9,6.2,63.7,8.1,79,9.1
	c90.8,5.6,342.5,2.9,378.4,3c5.2,0,19.9,0.1,39.6-1.8c2.4-0.2,10.9-1.1,25.1-3.3c21.9-3.4,28.4-5.4,51.3-9.7c6-1.1,3.9-0.7,49.3-8.2
	c25.2-4.2,37.9-6.3,41.4-7.1c19.9-4.6,38.3-8.9,57.7-21.2c8.2-5.2,20.1-14.1,31.9-28.7c0,0,2.1-9.4-3.1-20.5
	c-32.5-69.5-314.5-85.1-314.5-85.1c-98.1-5.4-167.5-3.2-261.4,0c-31.4,1.1-306.8,11.9-347.3,78.9
	C501.4,97.6,497.3,104.7,498.2,113.5z"/>
</svg>
